<svg width="167" height="167" viewBox="0 0 167 167" fill="none" xmlns="http://www.w3.org/2000/svg">
<g clip-path="url(#clip0_39_3)">
<path d="M83.5 10.4375C83.5 7.6693 84.5997 5.01448 86.5571 3.05707C88.5145 1.09966 91.1693 0 93.9375 0L156.562 0C159.331 0 161.986 1.09966 163.943 3.05707C165.9 5.01448 167 7.6693 167 10.4375V156.562C167 159.331 165.9 161.986 163.943 163.943C161.986 165.9 159.331 167 156.562 167H93.9375C91.1693 167 88.5145 165.9 86.5571 163.943C84.5997 161.986 83.5 159.331 83.5 156.562V10.4375ZM93.9375 151.344C93.9375 152.728 94.4873 154.055 95.466 155.034C96.4447 156.013 97.7722 156.562 99.1562 156.562C100.54 156.562 101.868 156.013 102.846 155.034C103.825 154.055 104.375 152.728 104.375 151.344C104.375 149.96 103.825 148.632 102.846 147.654C101.868 146.675 100.54 146.125 99.1562 146.125C97.7722 146.125 96.4447 146.675 95.466 147.654C94.4873 148.632 93.9375 149.96 93.9375 151.344ZM114.812 151.344C114.812 152.728 115.362 154.055 116.341 155.034C117.32 156.013 118.647 156.562 120.031 156.562C121.415 156.562 122.743 156.013 123.721 155.034C124.7 154.055 125.25 152.728 125.25 151.344C125.25 149.96 124.7 148.632 123.721 147.654C122.743 146.675 121.415 146.125 120.031 146.125C118.647 146.125 117.32 146.675 116.341 147.654C115.362 148.632 114.812 149.96 114.812 151.344ZM99.1562 10.4375C97.7722 10.4375 96.4447 10.9873 95.466 11.966C94.4873 12.9447 93.9375 14.2722 93.9375 15.6562C93.9375 17.0403 94.4873 18.3678 95.466 19.3465C96.4447 20.3252 97.7722 20.875 99.1562 20.875H151.344C152.728 20.875 154.055 20.3252 155.034 19.3465C156.013 18.3678 156.562 17.0403 156.562 15.6562C156.562 14.2722 156.013 12.9447 155.034 11.966C154.055 10.9873 152.728 10.4375 151.344 10.4375H99.1562ZM93.9375 36.5312C93.9375 37.9153 94.4873 39.2428 95.466 40.2215C96.4447 41.2002 97.7722 41.75 99.1562 41.75H151.344C152.728 41.75 154.055 41.2002 155.034 40.2215C156.013 39.2428 156.562 37.9153 156.562 36.5312C156.562 35.1472 156.013 33.8197 155.034 32.841C154.055 31.8623 152.728 31.3125 151.344 31.3125H99.1562C97.7722 31.3125 96.4447 31.8623 95.466 32.841C94.4873 33.8197 93.9375 35.1472 93.9375 36.5312ZM15.6562 20.875C11.504 20.875 7.52173 22.5245 4.58561 25.4606C1.64949 28.3967 0 32.379 0 36.5312L0 109.594C0 113.746 1.64949 117.728 4.58561 120.664C7.52173 123.601 11.504 125.25 15.6562 125.25H62.625V146.125H57.4062C56.0222 146.125 54.6947 146.675 53.716 147.654C52.7373 148.632 52.1875 149.96 52.1875 151.344C52.1875 152.728 52.7373 154.055 53.716 155.034C54.6947 156.013 56.0222 156.562 57.4062 156.562H73.0625V114.812H15.6562C14.2722 114.812 12.9447 114.263 11.966 113.284C10.9873 112.305 10.4375 110.978 10.4375 109.594V36.5312C10.4375 35.1472 10.9873 33.8197 11.966 32.841C12.9447 31.8623 14.2722 31.3125 15.6562 31.3125H73.0625V20.875H15.6562Z" fill="white"/>
</g>
<defs>
<clipPath id="clip0_39_3">
<rect width="167" height="167" fill="white"/>
</clipPath>
</defs>
</svg>
